<svg width="650" height="454" viewBox="0 0 650 454" fill="none" xmlns="http://www.w3.org/2000/svg">
<g clip-path="url(#clip0_8_61)">
<path d="M473.063 34.4841H46.6296C46.1965 34.4741 45.7844 34.2793 45.4814 33.9416C45.1784 33.6039 45.0087 33.1501 45.0087 32.6776C45.0087 32.205 45.1784 31.7512 45.4814 31.4135C45.7844 31.0758 46.1965 30.881 46.6296 30.871H473.063C473.496 30.881 473.908 31.0758 474.211 31.4135C474.514 31.7512 474.684 32.205 474.684 32.6776C474.684 33.1501 474.514 33.6039 474.211 33.9416C473.908 34.2793 473.496 34.4741 473.063 34.4841Z" fill="#CACACA"/>
<path d="M74.9712 21.6469C80.3301 21.6469 84.6744 16.8011 84.6744 10.8235C84.6744 4.84582 80.3301 0 74.9712 0C69.6122 0 65.2679 4.84582 65.2679 10.8235C65.2679 16.8011 69.6122 21.6469 74.9712 21.6469Z" fill="#3F3D56"/>
<path d="M108.492 21.6469C113.851 21.6469 118.195 16.8011 118.195 10.8235C118.195 4.84582 113.851 0 108.492 0C103.133 0 98.7883 4.84582 98.7883 10.8235C98.7883 16.8011 103.133 21.6469 108.492 21.6469Z" fill="#3F3D56"/>
<path d="M142.012 21.6469C147.371 21.6469 151.715 16.8011 151.715 10.8235C151.715 4.84582 147.371 0 142.012 0C136.653 0 132.309 4.84582 132.309 10.8235C132.309 16.8011 136.653 21.6469 142.012 21.6469Z" fill="#3F3D56"/>
<path d="M452.881 2.68274H429.07C428.598 2.69299 428.148 2.90477 427.818 3.27258C427.487 3.64039 427.302 4.13492 427.302 4.64998C427.302 5.16504 427.487 5.65956 427.818 6.02737C428.148 6.39518 428.598 6.60695 429.07 6.6172H452.881C453.353 6.60695 453.802 6.39518 454.133 6.02737C454.463 5.65956 454.648 5.16504 454.648 4.64998C454.648 4.13492 454.463 3.64039 454.133 3.27258C453.802 2.90477 453.353 2.69299 452.881 2.68274Z" fill="#3F3D56"/>
<path d="M452.881 10.067H429.07C428.598 10.0773 428.148 10.289 427.818 10.6569C427.487 11.0247 427.302 11.5192 427.302 12.0343C427.302 12.5493 427.487 13.0438 427.818 13.4117C428.148 13.7795 428.598 13.9912 429.07 14.0015H452.881C453.353 13.9912 453.802 13.7795 454.133 13.4117C454.463 13.0438 454.648 12.5493 454.648 12.0343C454.648 11.5192 454.463 11.0247 454.133 10.6569C453.802 10.289 453.353 10.0773 452.881 10.067Z" fill="#3F3D56"/>
<path d="M452.881 17.4418H429.07C428.598 17.452 428.148 17.6638 427.818 18.0316C427.487 18.3994 427.302 18.8939 427.302 19.409C427.302 19.9241 427.487 20.4186 427.818 20.7864C428.148 21.1542 428.598 21.366 429.07 21.3762H452.881C453.353 21.366 453.802 21.1542 454.133 20.7864C454.463 20.4186 454.648 19.9241 454.648 19.409C454.648 18.8939 454.463 18.3994 454.133 18.0316C453.802 17.6638 453.353 17.452 452.881 17.4418Z" fill="#3F3D56"/>
<path d="M163.898 362.186L164.482 132.266C164.499 127.612 166.207 123.156 169.231 119.874C172.255 116.593 176.349 114.754 180.613 114.762L339.752 115.243C344.017 115.261 348.102 117.125 351.109 120.424C354.116 123.724 355.801 128.191 355.794 132.844L355.21 362.765C355.193 367.418 353.486 371.874 350.462 375.156C347.438 378.437 343.344 380.276 339.079 380.268L179.94 379.787C175.675 379.769 171.591 377.905 168.584 374.606C165.576 371.306 163.891 366.839 163.898 362.186Z" fill="#E6E6E6"/>
<path d="M176.282 292.777L176.657 144.964C176.673 140.605 178.272 136.432 181.104 133.359C183.936 130.285 187.77 128.564 191.764 128.571L328.531 128.985C332.525 129.001 336.35 130.746 339.167 133.837C341.984 136.927 343.562 141.11 343.556 145.469L343.036 350.066C343.02 354.425 341.421 358.598 338.588 361.671C335.756 364.745 331.922 366.466 327.928 366.459L243.204 366.203C225.412 366.127 208.374 358.354 195.828 344.589C183.282 330.824 176.252 312.19 176.282 292.777Z" fill="white"/>
<path d="M313.168 243.96H206.525C204.828 243.96 203.2 243.224 202 241.915C200.8 240.606 200.126 238.83 200.126 236.978C200.126 235.127 200.8 233.351 202 232.042C203.2 230.732 204.828 229.997 206.525 229.997H313.168C314.865 229.997 316.492 230.732 317.692 232.042C318.892 233.351 319.566 235.127 319.566 236.978C319.566 238.83 318.892 240.606 317.692 241.915C316.492 243.224 314.865 243.96 313.168 243.96Z" fill="#6C63FF"/>
<path d="M229.986 205.672H206.525C204.828 205.672 203.2 204.936 202 203.627C200.8 202.318 200.126 200.542 200.126 198.69C200.126 196.839 200.8 195.063 202 193.754C203.2 192.444 204.828 191.709 206.525 191.709H229.986C231.683 191.709 233.311 192.444 234.511 193.754C235.711 195.063 236.385 196.839 236.385 198.69C236.385 200.542 235.711 202.318 234.511 203.627C233.311 204.936 231.683 205.672 229.986 205.672Z" fill="#6C63FF"/>
<path d="M313.168 305.346H206.525C204.828 305.346 203.2 304.611 202 303.302C200.8 301.992 200.126 300.216 200.126 298.365C200.126 296.513 200.8 294.737 202 293.428C203.2 292.119 204.828 291.383 206.525 291.383H313.168C314.865 291.383 316.492 292.119 317.692 293.428C318.892 294.737 319.566 296.513 319.566 298.365C319.566 300.216 318.892 301.992 317.692 303.302C316.492 304.611 314.865 305.346 313.168 305.346Z" fill="#6C63FF"/>
<path d="M313.168 274.653H206.525C204.828 274.653 203.2 273.918 202 272.608C200.8 271.299 200.126 269.523 200.126 267.672C200.126 265.82 200.8 264.044 202 262.735C203.2 261.426 204.828 260.69 206.525 260.69H313.168C314.865 260.69 316.492 261.426 317.692 262.735C318.892 264.044 319.566 265.82 319.566 267.672C319.566 269.523 318.892 271.299 317.692 272.608C316.492 273.918 314.865 274.653 313.168 274.653Z" fill="#6C63FF"/>
<path d="M25.4599 453.762C39.521 453.762 50.9198 441.324 50.9198 425.982C50.9198 410.639 39.521 398.202 25.4599 398.202C11.3988 398.202 0 410.639 0 425.982C0 441.324 11.3988 453.762 25.4599 453.762Z" fill="#6C63FF"/>
<path d="M21.9867 440.44C21.5471 440.44 21.1134 440.328 20.7202 440.114C20.327 439.899 19.985 439.588 19.7213 439.204L12.7754 429.098C12.5518 428.774 12.389 428.404 12.2963 428.011C12.2037 427.618 12.183 427.208 12.2354 426.806C12.2878 426.404 12.4124 426.017 12.6019 425.668C12.7915 425.318 13.0423 425.013 13.34 424.77C13.6378 424.526 13.9766 424.349 14.3372 424.248C14.6977 424.147 15.073 424.125 15.4414 424.183C15.8098 424.241 16.1641 424.377 16.4842 424.584C16.8043 424.791 17.0838 425.065 17.3067 425.39L21.851 432.001L33.5222 412.899C33.9392 412.218 34.5869 411.745 35.3231 411.585C36.0592 411.425 36.8236 411.59 37.4482 412.044C38.0728 412.499 38.5066 413.205 38.6541 414.008C38.8017 414.811 38.6509 415.646 38.2351 416.327L24.3434 439.064C24.0921 439.475 23.7541 439.815 23.3577 440.054C22.9614 440.293 22.5183 440.425 22.0655 440.439C22.0392 440.44 22.0129 440.44 21.9867 440.44Z" fill="white"/>
<path d="M25.6869 365.11H23.8539V371.11H25.6869V365.11Z" fill="#2F2E41"/>
<path d="M25.6869 353.654H23.8539V342.198H25.6869V353.654ZM25.6869 330.741H23.8539V319.285H25.6869V330.741ZM25.6869 307.829H23.8539V296.372H25.6869V307.829ZM25.6869 284.916H23.8539V273.46H25.6869V284.916ZM25.6869 262.003H23.8539V250.547H25.6869V262.003Z" fill="#2F2E41"/>
<path d="M25.6872 239.091H23.8542V232.091H30.2696V234.091H25.6872V239.091Z" fill="#2F2E41"/>
<path d="M116.788 234.091H105.973V232.091H116.788V234.091ZM95.158 234.091H84.3432V232.091H95.158V234.091ZM73.5284 234.091H62.7137V232.091H73.5284V234.091ZM51.8989 234.091H41.0841V232.091H51.8989V234.091Z" fill="#2F2E41"/>
<path d="M133.102 232.091H127.603V234.091H133.102V232.091Z" fill="#2F2E41"/>
<path d="M615.272 304.762H613.439V310.762H615.272V304.762Z" fill="#2F2E41"/>
<path d="M615.272 291.628H613.439V278.494H615.272V291.628ZM615.272 265.359H613.439V252.226H615.272V265.359Z" fill="#2F2E41"/>
<path d="M615.272 239.091H613.439V234.091H608.857V232.091H615.272V239.091Z" fill="#2F2E41"/>
<path d="M597.463 234.091H586.07V232.091H597.463V234.091ZM574.676 234.091H563.282V232.091H574.676V234.091ZM551.889 234.091H540.496V232.091H551.889V234.091ZM529.102 234.091H517.709V232.091H529.102V234.091ZM506.315 234.091H494.922V232.091H506.315L506.315 234.091ZM483.528 234.091H472.135V232.091H483.528V234.091ZM460.741 234.091H449.348V232.091H460.741V234.091ZM437.955 234.091H426.561V232.091H437.955V234.091ZM415.167 234.091H403.774V232.091H415.167V234.091Z" fill="#2F2E41"/>
<path d="M392.381 232.091H386.882V234.091H392.381V232.091Z" fill="#2F2E41"/>
<path d="M614.932 383.762C628.993 383.762 640.392 371.324 640.392 355.982C640.392 340.639 628.993 328.202 614.932 328.202C600.871 328.202 589.472 340.639 589.472 355.982C589.472 371.324 600.871 383.762 614.932 383.762Z" fill="#6C63FF"/>
<path d="M619.94 355.982L624.949 350.517C625.611 349.792 625.982 348.809 625.981 347.786C625.98 346.763 625.607 345.781 624.943 345.058C624.28 344.334 623.381 343.927 622.443 343.926C621.505 343.925 620.605 344.33 619.94 345.052L614.932 350.517L609.923 345.052C609.258 344.33 608.358 343.925 607.42 343.926C606.482 343.927 605.583 344.334 604.92 345.058C604.257 345.781 603.884 346.763 603.883 347.786C603.882 348.809 604.253 349.792 604.915 350.517L609.923 355.982L604.915 361.447C604.584 361.805 604.321 362.231 604.142 362.701C603.962 363.17 603.87 363.673 603.869 364.182C603.868 364.69 603.959 365.194 604.137 365.664C604.315 366.134 604.577 366.561 604.906 366.921C605.236 367.28 605.627 367.566 606.058 367.76C606.489 367.954 606.95 368.054 607.416 368.053C607.882 368.052 608.344 367.951 608.774 367.755C609.204 367.559 609.595 367.273 609.923 366.912L614.932 361.447L619.94 366.912C620.269 367.273 620.659 367.559 621.089 367.755C621.52 367.951 621.981 368.052 622.447 368.053C622.913 368.054 623.375 367.954 623.805 367.76C624.236 367.566 624.628 367.28 624.957 366.921C625.287 366.561 625.548 366.134 625.726 365.664C625.904 365.194 625.995 364.69 625.995 364.182C625.994 363.673 625.901 363.17 625.722 362.701C625.542 362.231 625.28 361.805 624.949 361.447L619.94 355.982Z" fill="white"/>
<path d="M543.498 189.762L548.997 225.376L601.236 194.762L543.498 189.762Z" fill="#2F2E41"/>
<path d="M537.256 411.204L526.313 410.717L522.827 364.429L538.978 365.148L537.256 411.204Z" fill="#FFB6B6"/>
<path d="M537.999 278.762C557.85 272.158 561.924 243.925 572.825 237.762C572.798 222.851 573.347 176.61 559.705 177.49C552.108 177.981 509.779 262.521 507.965 276.527C504.598 302.513 522.572 368.836 520.486 373.393L541.358 374.834L541.48 373.041C541.811 368.179 545.139 353.518 541.343 350.945L539.905 349.97C539.918 344.914 540.929 336.302 536.75 334.119C536.697 334.091 536.649 334.052 536.611 334.003C536.573 333.954 536.545 333.897 536.528 333.835C536.511 333.773 536.507 333.709 536.515 333.645C536.522 333.581 536.542 333.52 536.573 333.465L537.999 278.762Z" fill="#2F2E41"/>
<path d="M542.895 421.561L535.577 422.032L533.863 414.577L530.925 422.331L511.515 423.58C510.585 423.64 509.661 423.373 508.88 422.82C508.098 422.267 507.498 421.455 507.169 420.504C506.84 419.552 506.798 418.511 507.049 417.532C507.301 416.553 507.833 415.687 508.567 415.061L523.436 402.383L523.024 394.762L539.385 394.775L542.895 421.561Z" fill="#2F2E41"/>
<path d="M620.669 327.78L631.586 328.745L640.192 283.261L624.08 281.836L620.669 327.78Z" fill="#FFB6B6"/>
<path d="M616.39 212.508C606.599 231.282 589.084 235.764 570.921 239.049C563.024 226.879 550.987 209.913 562.572 202.004C569.024 197.6 624.953 161.97 633.586 172.522C656.128 200.07 640.047 288.721 641.432 286.762L623.577 286.479L622.526 285.095C621.126 283.253 620.216 281.029 619.893 278.663C619.57 276.297 619.847 273.879 620.694 271.673L621.348 269.969C620.028 267.954 619.258 265.572 619.128 263.099C618.997 260.627 619.513 258.164 620.613 255.998L620.839 255.552L616.39 212.508Z" fill="#2F2E41"/>
<path d="M620.383 311.19L636.624 313.343L635.368 320.854L648.718 335.406C649.377 336.124 649.809 337.054 649.95 338.06C650.09 339.065 649.933 340.093 649.501 340.994C649.068 341.894 648.383 342.621 647.545 343.066C646.708 343.512 645.761 343.654 644.844 343.471L625.717 339.663L623.663 331.577L621.133 338.75L613.921 337.314L620.383 311.19Z" fill="#2F2E41"/>
<path d="M577.947 62.7617H570.454C568.923 62.7617 567.416 63.1665 566.06 63.9414C564.705 64.7164 563.542 65.8383 562.671 67.2112L557.245 75.7617L543.727 78.4443C539.032 81.6085 535.494 86.4602 533.724 92.1639C531.954 97.8677 532.062 104.066 534.03 109.693C543.595 136.991 548.213 188.156 538.915 210.762C538.915 210.762 595.318 216.337 609.485 197.762C623.651 179.187 612.234 88.7617 612.234 88.7617L591.155 75.7617L585.73 67.2114C584.859 65.8385 583.696 64.7165 582.34 63.9415C580.985 63.1666 579.477 62.7617 577.947 62.7617Z" fill="#6C63FF"/>
<path d="M612.902 222.535C613.536 221.806 614.016 220.934 614.308 219.981C614.6 219.028 614.697 218.016 614.592 217.018C614.487 216.019 614.183 215.058 613.701 214.202C613.218 213.346 612.57 212.615 611.801 212.062L624.148 167.762L610.401 158.762L602.772 214.394C602.006 215.866 601.761 217.592 602.084 219.247C602.407 220.902 603.275 222.371 604.524 223.374C605.772 224.377 607.315 224.846 608.859 224.692C610.403 224.537 611.842 223.769 612.902 222.535H612.902Z" fill="#FFB6B6"/>
<path d="M625.065 172.762L608.568 165.762L609.273 156.775L589.672 109.958C588.703 107.644 588.213 105.126 588.236 102.582C588.26 100.038 588.796 97.5306 589.808 95.2383C590.819 92.9459 592.281 90.9247 594.089 89.318C595.897 87.7113 598.006 86.5586 600.269 85.9417C604.355 84.8324 608.679 85.5373 612.29 87.9019C615.901 90.2665 618.505 94.0976 619.53 98.5545L632.413 154.798C633.903 163.527 632.218 170.047 625.065 172.762Z" fill="#6C63FF"/>
<path d="M602.244 35.5118C602.244 27.4094 599.295 19.6389 594.044 13.9097C588.793 8.18045 581.672 4.96179 574.246 4.96179C566.82 4.96179 559.699 8.18045 554.448 13.9097C549.197 19.6389 546.247 27.4094 546.247 35.5118V54.6618C546.249 55.7487 546.645 56.7907 547.349 57.5593C548.054 58.3279 549.009 58.7603 550.005 58.7618H550.692C551.486 56.2805 551.97 53.6939 552.131 51.0718C553.577 53.4354 554.678 56.0296 555.394 58.7618H598.478C599.475 58.7607 600.431 58.3287 601.137 57.5603C601.843 56.7919 602.241 55.7498 602.244 54.6618C604.508 49.6218 605.525 43.8418 602.244 35.5118Z" fill="#2F2E41"/>
<path d="M573.118 58.573C584.454 58.573 593.644 48.5454 593.644 36.1757C593.644 23.8061 584.454 13.7784 573.118 13.7784C561.781 13.7784 552.591 23.8061 552.591 36.1757C552.591 48.5454 561.781 58.573 573.118 58.573Z" fill="#FFB8B8"/>
<path d="M552.028 36.0895C551.831 35.8425 551.686 35.5524 551.602 35.2388C551.517 34.9252 551.496 34.5955 551.539 34.2719L553.97 15.7969C554.018 15.421 554.152 15.0641 554.358 14.7586C554.564 14.4531 554.837 14.2085 555.152 14.047C567.563 7.70914 580.149 7.70111 592.56 14.023C592.889 14.1933 593.173 14.4539 593.382 14.7794C593.591 15.1049 593.719 15.484 593.754 15.8798L596.294 30.3788C596.321 30.6951 596.288 31.0141 596.196 31.3156C596.104 31.617 595.956 31.8943 595.76 32.1296C595.365 32.6034 594.813 43.0218 594.225 43.0218C594.721 36.812 593.522 33.8409 589.181 36.8758C588.783 36.8748 588.394 36.7506 588.059 36.5178C587.724 36.2849 587.456 35.9529 587.287 35.5605L585.511 31.4071C585.396 31.1381 585.204 30.9173 584.964 30.7779C584.724 30.6384 584.449 30.588 584.18 30.6341C583.911 30.6802 583.664 30.8205 583.474 31.0337C583.285 31.2468 583.165 31.5214 583.131 31.8158L582.78 34.8784C582.716 35.4295 582.471 35.9365 582.089 36.3042C581.707 36.6719 581.216 36.8751 580.707 36.8758C573.453 40.803 563.941 39.7461 553.607 36.8758C553.307 36.8759 553.011 36.8057 552.739 36.67C552.466 36.5343 552.224 36.3364 552.028 36.0895Z" fill="#2F2E41"/>
<path d="M589.486 160.702H555.843C554.691 160.701 553.586 160.201 552.772 159.312C551.957 158.423 551.499 157.218 551.498 155.961V116.503C551.499 115.246 551.957 114.041 552.772 113.152C553.586 112.263 554.691 111.763 555.843 111.762H589.486C590.638 111.763 591.742 112.263 592.557 113.152C593.371 114.041 593.83 115.246 593.831 116.503V155.961C593.83 157.218 593.371 158.423 592.557 159.312C591.742 160.201 590.638 160.701 589.486 160.702Z" fill="#3F3D56"/>
<path d="M556.789 120.285C558.181 120.285 559.309 119.054 559.309 117.536C559.309 116.017 558.181 114.786 556.789 114.786C555.398 114.786 554.27 116.017 554.27 117.536C554.27 119.054 555.398 120.285 556.789 120.285Z" fill="#E6E6E6"/>
<path d="M556.789 119.185C557.624 119.185 558.301 118.447 558.301 117.536C558.301 116.625 557.624 115.886 556.789 115.886C555.954 115.886 555.277 116.625 555.277 117.536C555.277 118.447 555.954 119.185 556.789 119.185Z" fill="#3F3D56"/>
<path d="M595.454 134.108C594.706 135.015 593.786 135.731 592.757 136.207C591.728 136.683 590.616 136.907 589.5 136.863C588.383 136.819 587.288 136.509 586.293 135.954C585.299 135.399 584.427 134.612 583.741 133.65L553.579 142.762L548.997 131.762L585.468 121.514C587.026 120.363 588.917 119.876 590.782 120.144C592.647 120.413 594.357 121.419 595.588 122.971C596.819 124.524 597.485 126.515 597.461 128.568C597.436 130.62 596.722 132.592 595.454 134.108H595.454Z" fill="#FFB8B8"/>
<path d="M557.162 143.045L548.699 145.993C539.495 156.603 536.238 148.904 525.391 148.107C523.35 147.957 521.752 146.129 520.643 142.675C519.133 137.817 519.284 132.527 521.068 127.781L536.136 86.577L542.442 80.939L551.248 92.4529L544.487 124.107L555.586 130.28L557.162 143.045Z" fill="#6C63FF"/>
</g>
<defs>
<clipPath id="clip0_8_61">
<rect width="650" height="453.762" fill="white"/>
</clipPath>
</defs>
</svg>
