<svg width="650" height="500" viewBox="0 0 650 500" fill="none" xmlns="http://www.w3.org/2000/svg">
<g clip-path="url(#clip0_3_22)">
<path d="M88.2151 484.468L95.1981 473.332L96.5929 479.695C96.8375 480.81 97.082 481.942 97.3084 483.066C99.2919 481.385 101.402 479.83 103.467 478.338C109.807 473.772 116.144 469.201 122.478 464.623L120.495 476.037C119.272 483.066 117.995 490.238 114.97 496.664C114.635 497.392 114.272 498.111 113.883 498.812H84.411C84.1739 498.161 84.0099 497.485 83.9219 496.799C83.9145 496.754 83.9116 496.709 83.913 496.664C83.4508 492.305 85.8783 488.197 88.2151 484.468Z" fill="#F0F0F0"/>
<path d="M532.008 7.62939e-06H117.196C113.632 0.00562874 110.216 1.413 107.696 3.91371C105.176 6.41441 103.757 9.80449 103.752 13.341V291.111C103.755 294.648 105.173 298.039 107.693 300.54C110.214 303.042 113.631 304.448 117.196 304.452H532.008C535.573 304.448 538.99 303.042 541.511 300.54C544.032 298.039 545.449 294.648 545.453 291.111V13.341C545.447 9.80447 544.029 6.41439 541.508 3.91369C538.988 1.41299 535.572 0.00562871 532.008 7.62939e-06Z" fill="#E6E6E6"/>
<path d="M529.452 295.255H257.652C219.567 295.144 183.074 280.082 156.144 253.359C129.214 226.635 114.036 190.422 113.925 152.629V16.7854C113.925 14.7728 114.73 12.8424 116.163 11.4179C117.595 9.99336 119.539 9.19097 121.567 9.18679H529.452C531.48 9.19096 533.424 9.99334 534.856 11.4179C536.289 12.8424 537.094 14.7728 537.094 16.7854V287.671C537.092 289.682 536.286 291.609 534.853 293.031C533.421 294.453 531.478 295.253 529.452 295.255Z" fill="white"/>
<path d="M508.042 46.9579H126.387C125.99 46.9492 125.612 46.7867 125.335 46.5052C125.057 46.2237 124.902 45.8456 124.902 45.4518C124.902 45.058 125.057 44.6798 125.335 44.3983C125.612 44.1168 125.99 43.9543 126.387 43.9457H508.042C508.439 43.9543 508.816 44.1168 509.094 44.3983C509.371 44.6798 509.527 45.058 509.527 45.4518C509.527 45.8456 509.371 46.2237 509.094 46.5052C508.816 46.7867 508.439 46.9492 508.042 46.9579Z" fill="#CACACA"/>
<path d="M152.366 36.2559C157.279 36.2559 161.261 32.2161 161.261 27.2328C161.261 22.2494 157.279 18.2097 152.366 18.2097C147.454 18.2097 143.472 22.2494 143.472 27.2328C143.472 32.2161 147.454 36.2559 152.366 36.2559Z" fill="#3F3D56"/>
<path d="M183.093 36.2559C188.006 36.2559 191.988 32.2161 191.988 27.2328C191.988 22.2494 188.006 18.2097 183.093 18.2097C178.181 18.2097 174.199 22.2494 174.199 27.2328C174.199 32.2161 178.181 36.2559 183.093 36.2559Z" fill="#3F3D56"/>
<path d="M213.82 36.2559C218.733 36.2559 222.715 32.2161 222.715 27.2328C222.715 22.2494 218.733 18.2097 213.82 18.2097C208.908 18.2097 204.926 22.2494 204.926 27.2328C204.926 32.2161 208.908 36.2559 213.82 36.2559Z" fill="#3F3D56"/>
<path d="M386.299 182.349H231.742C228.946 182.385 226.24 181.368 224.169 179.504C222.098 177.639 220.815 175.065 220.579 172.3C220.483 170.887 220.668 169.468 221.124 168.125C221.58 166.782 222.298 165.541 223.237 164.474C224.176 163.406 225.318 162.532 226.597 161.903C227.877 161.273 229.268 160.9 230.693 160.804C230.936 160.787 231.179 160.779 231.423 160.779H386.299C389.182 160.779 391.946 161.915 393.985 163.938C396.023 165.96 397.168 168.704 397.168 171.564C397.168 174.424 396.023 177.168 393.985 179.19C391.946 181.213 389.182 182.349 386.299 182.349Z" fill="#6C63FF"/>
<path d="M386.586 121.946C392.009 121.946 396.405 117.584 396.405 112.203C396.405 106.821 392.009 102.459 386.586 102.459C381.163 102.459 376.766 106.821 376.766 112.203C376.766 117.584 381.163 121.946 386.586 121.946Z" fill="#E6E6E6"/>
<path d="M385.246 117.274C385.077 117.274 384.909 117.235 384.758 117.159C384.606 117.084 384.474 116.975 384.372 116.84L381.694 113.296C381.607 113.182 381.543 113.052 381.507 112.914C381.471 112.776 381.462 112.632 381.482 112.49C381.502 112.349 381.55 112.213 381.623 112.09C381.697 111.967 381.794 111.86 381.909 111.774C382.024 111.688 382.155 111.626 382.294 111.591C382.434 111.555 382.579 111.548 382.721 111.568C382.864 111.589 383.001 111.637 383.124 111.711C383.248 111.784 383.355 111.881 383.441 111.995L385.194 114.314L389.695 107.614C389.855 107.374 390.104 107.207 390.388 107.15C390.672 107.092 390.967 107.149 391.209 107.308C391.45 107.466 391.618 107.714 391.676 107.995C391.734 108.277 391.677 108.57 391.517 108.81L391.513 108.816L386.155 116.791C386.058 116.935 385.928 117.054 385.775 117.138C385.622 117.222 385.451 117.269 385.276 117.274L385.246 117.274Z" fill="white"/>
<path d="M386.586 240.583C392.009 240.583 396.405 236.22 396.405 230.839C396.405 225.457 392.009 221.095 386.586 221.095C381.163 221.095 376.766 225.457 376.766 230.839C376.766 236.22 381.163 240.583 386.586 240.583Z" fill="#E6E6E6"/>
<path d="M385.246 235.91C385.077 235.91 384.909 235.871 384.758 235.796C384.606 235.72 384.474 235.611 384.372 235.476L381.694 231.932C381.607 231.818 381.543 231.689 381.507 231.55C381.471 231.412 381.462 231.268 381.482 231.127C381.502 230.985 381.55 230.849 381.623 230.726C381.697 230.603 381.794 230.496 381.909 230.41C382.024 230.325 382.155 230.262 382.294 230.227C382.434 230.192 382.579 230.184 382.721 230.205C382.864 230.225 383.001 230.274 383.124 230.347C383.248 230.42 383.355 230.517 383.441 230.632L385.194 232.95L389.695 226.25C389.855 226.01 390.104 225.843 390.388 225.786C390.672 225.729 390.967 225.786 391.209 225.944C391.45 226.103 391.618 226.35 391.676 226.632C391.734 226.913 391.677 227.206 391.517 227.446L391.513 227.453L386.155 235.427C386.058 235.572 385.928 235.691 385.775 235.775C385.622 235.859 385.451 235.905 385.276 235.91L385.246 235.91Z" fill="white"/>
<path d="M307.503 123.031H231.742C228.946 123.067 226.24 122.05 224.169 120.185C222.098 118.321 220.815 115.747 220.579 112.982C220.483 111.568 220.668 110.149 221.124 108.807C221.58 107.464 222.298 106.223 223.237 105.155C224.176 104.088 225.318 103.214 226.597 102.585C227.877 101.955 229.268 101.581 230.693 101.486C230.936 101.469 231.179 101.461 231.423 101.461H307.503C310.385 101.461 313.15 102.597 315.188 104.62C317.226 106.642 318.371 109.386 318.371 112.246C318.371 115.106 317.226 117.85 315.188 119.872C313.15 121.895 310.385 123.031 307.503 123.031Z" fill="#6C63FF"/>
<path d="M386.299 123.48H231.423C228.421 123.48 225.541 122.297 223.418 120.19C221.295 118.083 220.102 115.225 220.102 112.246C220.102 109.266 221.295 106.409 223.418 104.302C225.541 102.195 228.421 101.011 231.423 101.011H386.299C389.302 101.011 392.182 102.195 394.305 104.302C396.428 106.409 397.621 109.266 397.621 112.246C397.621 115.225 396.428 118.083 394.305 120.19C392.182 122.297 389.302 123.48 386.299 123.48ZM231.423 102.809C228.901 102.809 226.482 103.803 224.699 105.573C222.915 107.343 221.913 109.743 221.913 112.246C221.913 114.749 222.915 117.149 224.699 118.919C226.482 120.689 228.901 121.683 231.423 121.683H386.299C388.822 121.683 391.24 120.689 393.024 118.919C394.807 117.149 395.809 114.749 395.809 112.246C395.809 109.743 394.807 107.343 393.024 105.573C391.24 103.803 388.822 102.809 386.299 102.809H231.423Z" fill="#3F3D56"/>
<path d="M386.299 182.799H231.423C228.421 182.799 225.541 181.615 223.418 179.508C221.295 177.401 220.102 174.544 220.102 171.564C220.102 168.584 221.295 165.727 223.418 163.62C225.541 161.513 228.421 160.33 231.423 160.33H386.299C389.302 160.33 392.182 161.513 394.305 163.62C396.428 165.727 397.621 168.584 397.621 171.564C397.621 174.544 396.428 177.401 394.305 179.508C392.182 181.615 389.302 182.799 386.299 182.799ZM231.423 162.127C228.901 162.127 226.482 163.121 224.699 164.891C222.915 166.661 221.913 169.061 221.913 171.564C221.913 174.067 222.915 176.467 224.699 178.237C226.482 180.007 228.901 181.001 231.423 181.001H386.299C388.822 181.001 391.24 180.007 393.024 178.237C394.807 176.467 395.809 174.067 395.809 171.564C395.809 169.061 394.807 166.661 393.024 164.891C391.24 163.121 388.822 162.127 386.299 162.127H231.423Z" fill="#3F3D56"/>
<path d="M274.897 241.667H231.742C228.946 241.703 226.24 240.686 224.169 238.822C222.098 236.957 220.815 234.384 220.579 231.619C220.483 230.205 220.668 228.786 221.124 227.443C221.58 226.1 222.298 224.859 223.237 223.792C224.176 222.724 225.318 221.851 226.597 221.221C227.877 220.591 229.268 220.218 230.693 220.122C230.936 220.105 231.179 220.097 231.423 220.097H274.897C277.78 220.097 280.544 221.233 282.582 223.256C284.621 225.279 285.766 228.022 285.766 230.882C285.766 233.743 284.621 236.486 282.582 238.508C280.544 240.531 277.78 241.667 274.897 241.667Z" fill="#6C63FF"/>
<path d="M386.299 242.117H231.423C228.421 242.117 225.541 240.933 223.418 238.826C221.295 236.719 220.102 233.862 220.102 230.882C220.102 227.903 221.295 225.045 223.418 222.938C225.541 220.831 228.421 219.648 231.423 219.648H386.299C389.302 219.648 392.182 220.831 394.305 222.938C396.428 225.045 397.621 227.903 397.621 230.882C397.621 233.862 396.428 236.719 394.305 238.826C392.182 240.933 389.302 242.117 386.299 242.117ZM231.423 221.445C228.901 221.445 226.482 222.439 224.699 224.209C222.915 225.979 221.913 228.379 221.913 230.882C221.913 233.385 222.915 235.785 224.699 237.555C226.482 239.325 228.901 240.319 231.423 240.319H386.299C388.822 240.319 391.24 239.325 393.024 237.555C394.807 235.785 395.809 233.385 395.809 230.882C395.809 228.379 394.807 225.979 393.024 224.209C391.24 222.439 388.822 221.445 386.299 221.445H231.423Z" fill="#3F3D56"/>
<path d="M260.407 89.876H224.178C223.217 89.876 222.296 89.4972 221.616 88.823C220.937 88.1488 220.555 87.2344 220.555 86.281C220.555 85.3275 220.937 84.4131 221.616 83.7389C222.296 83.0647 223.217 82.6859 224.178 82.6859H260.407C261.367 82.6859 262.289 83.0647 262.968 83.7389C263.648 84.4131 264.029 85.3275 264.029 86.281C264.029 87.2344 263.648 88.1488 262.968 88.823C262.289 89.4972 261.367 89.876 260.407 89.876Z" fill="#CCCCCC"/>
<path d="M260.407 149.194H224.178C223.217 149.194 222.296 148.815 221.616 148.141C220.937 147.467 220.555 146.553 220.555 145.599C220.555 144.646 220.937 143.731 221.616 143.057C222.296 142.383 223.217 142.004 224.178 142.004H260.407C261.367 142.004 262.289 142.383 262.968 143.057C263.648 143.731 264.029 144.646 264.029 145.599C264.029 146.553 263.648 147.467 262.968 148.141C262.289 148.815 261.367 149.194 260.407 149.194Z" fill="#CCCCCC"/>
<path d="M260.407 208.512H224.178C223.217 208.512 222.296 208.134 221.616 207.459C220.937 206.785 220.555 205.871 220.555 204.917C220.555 203.964 220.937 203.049 221.616 202.375C222.296 201.701 223.217 201.322 224.178 201.322H260.407C261.367 201.322 262.289 201.701 262.968 202.375C263.648 203.049 264.029 203.964 264.029 204.917C264.029 205.871 263.648 206.785 262.968 207.459C262.289 208.134 261.367 208.512 260.407 208.512Z" fill="#CCCCCC"/>
<path d="M206.074 90.6495C208.248 90.6495 210.011 88.8615 210.011 86.656C210.011 84.4504 208.248 82.6625 206.074 82.6625C203.9 82.6625 202.137 84.4504 202.137 86.656C202.137 88.8615 203.9 90.6495 206.074 90.6495Z" fill="#3F3D56"/>
<path d="M206.074 149.968C208.248 149.968 210.011 148.18 210.011 145.974C210.011 143.769 208.248 141.981 206.074 141.981C203.9 141.981 202.137 143.769 202.137 145.974C202.137 148.18 203.9 149.968 206.074 149.968Z" fill="#3F3D56"/>
<path d="M206.074 209.286C208.248 209.286 210.011 207.498 210.011 205.292C210.011 203.087 208.248 201.299 206.074 201.299C203.9 201.299 202.137 203.087 202.137 205.292C202.137 207.498 203.9 209.286 206.074 209.286Z" fill="#3F3D56"/>
<path d="M465.485 489.097L456.518 489.096L452.252 454.773L465.487 454.773L465.485 489.097Z" fill="#FFB6B6"/>
<path d="M465.801 498.38L438.225 498.379V498.033C438.225 495.208 439.356 492.499 441.369 490.502C443.382 488.504 446.112 487.382 448.958 487.382H448.959L453.996 483.59L463.394 487.383L465.801 487.383L465.801 498.38Z" fill="#2F2E41"/>
<path d="M500.808 489.097L491.841 489.096L487.575 454.773L500.81 454.773L500.808 489.097Z" fill="#FFB6B6"/>
<path d="M501.124 498.38L473.548 498.379V498.033C473.548 495.208 474.679 492.499 476.692 490.502C478.704 488.504 481.434 487.382 484.281 487.382H484.282L489.319 483.59L498.717 487.383L501.124 487.383L501.124 498.38Z" fill="#2F2E41"/>
<path d="M434.626 274.122L428.286 295.692L435.755 387.046C435.755 387.046 431.909 392.758 434.626 392.758C437.344 392.758 440.828 394.025 438.633 397.436C436.438 400.847 443.94 413.093 443.94 413.093L454.552 478.14L468.073 477.942C468.073 477.942 474.948 474.142 471.09 470.299C467.232 466.456 464.515 466.456 468.138 462.861C471.761 459.266 471.761 460.349 471.761 457.561C471.761 454.773 475.39 420.698 466.782 407.627L469.376 354.334L475.485 406.608L488.063 476.343L501.089 476.236C501.089 476.236 507.105 470.482 507.094 466.222C507.083 461.963 503.377 461.609 506.136 459.089C508.894 456.57 508.895 417.867 500.743 396.353L500.805 300.122C500.805 300.122 508.814 278.524 500.703 270.032C492.592 261.539 434.626 274.122 434.626 274.122Z" fill="#2F2E41"/>
<path d="M516.267 236.487L521.728 180.36C521.952 177.982 521.225 175.611 519.703 173.76C518.181 171.909 515.987 170.725 513.594 170.465C511.176 170.202 508.752 170.904 506.855 172.414C504.958 173.925 503.743 176.122 503.478 178.522C503.461 178.682 503.447 178.842 503.438 179.003L499.567 237.478L495.706 272.911C494.132 273.38 492.742 274.319 491.724 275.6C490.707 276.881 490.111 278.441 490.019 280.07C489.926 281.698 490.341 283.315 491.207 284.701C492.073 286.088 493.348 287.176 494.858 287.818C496.369 288.46 498.042 288.625 499.651 288.291C501.259 287.956 502.725 287.139 503.849 285.949C504.973 284.759 505.701 283.254 505.933 281.64C506.166 280.025 505.891 278.379 505.148 276.925L516.267 236.487Z" fill="#FFB6B6"/>
<path d="M495.791 151.91L515.465 154.358C515.465 154.358 530.206 181.93 527.172 184.27C524.138 186.61 510.428 201.209 500.319 194.517C490.211 187.824 495.791 151.91 495.791 151.91Z" fill="#3F3D56"/>
<path d="M461.91 125.456C473.442 125.456 482.791 116.179 482.791 104.735C482.791 93.2904 473.442 84.013 461.91 84.013C450.377 84.013 441.028 93.2904 441.028 104.735C441.028 116.179 450.377 125.456 461.91 125.456Z" fill="#FFB6B6"/>
<path d="M469.978 123.758C463.986 123.563 463.442 121.992 457.449 121.797C455.542 121.735 453.29 121.475 452.368 119.817C452.099 119.195 451.979 118.521 452.018 117.846C452.057 117.171 452.253 116.514 452.591 115.927C453.275 114.761 453.891 113.558 454.437 112.323C454.766 111.355 454.852 110.321 454.688 109.312C454.525 108.303 454.116 107.349 453.497 106.532C452.878 105.715 452.068 105.06 451.137 104.623C450.206 104.187 449.182 103.981 448.153 104.026C446.329 104.104 444.617 104.955 442.798 105.11C440.304 105.324 434.79 97.1523 435.938 94.9451C437.055 92.7965 439.305 91.1755 439.658 88.7831C439.89 87.2184 439.239 85.6637 439.15 84.0848C439.018 81.7436 444.998 87.0225 443.903 84.9447C441.216 79.8479 466.535 73.5292 470.703 79.9134C472.261 82.2995 475.037 82.1367 477.511 83.5697C479.133 84.5089 483.229 87.749 484.16 89.7685C485.015 91.8292 485.419 94.0469 485.346 96.2744C485.383 106.634 483.793 116.163 475.372 122.287" fill="#2F2E41"/>
<path d="M456.363 131.219L473.572 127.624L486.79 133.933C486.79 133.933 518.054 146.412 517.947 158.717C517.841 171.023 512.346 197.985 506.036 200.682C499.727 203.378 511.501 212.365 507.878 217.758C504.255 223.151 498.768 259.992 498.768 259.992C498.768 259.992 511.597 285.353 500.743 290.299C489.889 295.246 444.019 299.871 441.079 293.417C438.139 286.963 438.111 290.485 431.332 288.724C424.553 286.963 431.339 262.271 437.456 259.788C443.573 257.304 447.196 203.378 447.196 203.378L437.456 161.448L452.316 140.691L456.363 131.219Z" fill="#3F3D56"/>
<path d="M444.31 246.475L459.858 192.239C460.51 189.939 460.224 187.477 459.063 185.385C457.902 183.292 455.958 181.736 453.651 181.053C451.32 180.363 448.808 180.62 446.668 181.767C444.528 182.915 442.935 184.859 442.239 187.172C442.193 187.327 442.151 187.482 442.113 187.638L427.703 244.468L417.481 278.634C415.847 278.814 414.31 279.49 413.077 280.568C411.844 281.646 410.975 283.075 410.589 284.66C410.202 286.246 410.317 287.91 410.918 289.429C411.518 290.947 412.575 292.245 413.944 293.146C415.314 294.048 416.93 294.509 418.573 294.467C420.216 294.425 421.806 293.883 423.128 292.913C424.449 291.943 425.438 290.593 425.959 289.046C426.48 287.5 426.509 285.831 426.041 284.268L444.31 246.475Z" fill="#FFB6B6"/>
<path d="M439.502 159.622L458.412 165.543C458.412 165.543 470.711 183.464 466.106 186.021C461.502 188.578 459.775 188.037 462.14 192.547C464.505 197.057 467.913 195.297 464.505 197.057C461.096 198.817 444.962 210.73 436.232 202.342C427.502 193.954 439.502 159.622 439.502 159.622Z" fill="#3F3D56"/>
<path d="M4.79765e-06 498.93C-0.000416876 499.071 0.0269617 499.209 0.0805755 499.339C0.134189 499.468 0.212988 499.586 0.312475 499.685C0.411962 499.785 0.530194 499.864 0.660408 499.918C0.790622 499.972 0.930271 500 1.07139 500H648.922C649.208 500 649.482 499.887 649.684 499.687C649.886 499.486 650 499.214 650 498.93C650 498.647 649.886 498.375 649.684 498.174C649.482 497.974 649.208 497.861 648.922 497.861H1.0778C0.936678 497.861 0.796863 497.888 0.666323 497.941C0.535784 497.994 0.417077 498.072 0.316995 498.171C0.216912 498.27 0.13741 498.387 0.0830216 498.516C0.0286328 498.646 0.000419283 498.784 4.79765e-06 498.924V498.93Z" fill="#CCCCCC"/>
<path d="M386.586 189.866C396.796 189.866 405.073 181.653 405.073 171.521C405.073 161.389 396.796 153.175 386.586 153.175C376.375 153.175 368.098 161.389 368.098 171.521C368.098 181.653 376.375 189.866 386.586 189.866Z" fill="#6C63FF"/>
<path d="M384.064 181.069C383.744 181.069 383.429 180.995 383.144 180.853C382.858 180.712 382.61 180.506 382.419 180.252L377.375 173.579C377.048 173.146 376.907 172.602 376.984 172.066C377.062 171.53 377.35 171.047 377.786 170.722C378.223 170.397 378.771 170.258 379.311 170.335C379.851 170.411 380.338 170.697 380.665 171.13L383.965 175.496L392.44 162.881C392.741 162.43 393.21 162.116 393.744 162.007C394.279 161.899 394.835 162.006 395.29 162.305C395.745 162.604 396.061 163.069 396.17 163.6C396.279 164.13 396.171 164.682 395.87 165.133L395.862 165.145L385.775 180.16C385.592 180.432 385.347 180.656 385.059 180.814C384.771 180.972 384.45 181.059 384.121 181.068L384.064 181.069Z" fill="white"/>
</g>
<defs>
<clipPath id="clip0_3_22">
<rect width="650" height="500" fill="white"/>
</clipPath>
</defs>
</svg>
